<svg xmlns="http://www.w3.org/2000/svg" viewBox="0 0 154.37 40"><defs><style>.cls-1{fill:#fff;}</style></defs><g id="Layer_2" data-name="Layer 2"><g id="outlines"><path class="cls-1" d="M59.58,31.28H56.89V9.91h-8V7.42H67.59V9.91h-8Z"/><path class="cls-1" d="M71,31.28H68.34V13.66H71v4.6a9.68,9.68,0,0,1,1.19-2,7.91,7.91,0,0,1,1.64-1.58,6.78,6.78,0,0,1,2-1,7.15,7.15,0,0,1,2.35-.31v2.83H78a7,7,0,0,0-2.71.52A6.13,6.13,0,0,0,73,18.23a7.47,7.47,0,0,0-1.5,2.54A10.36,10.36,0,0,0,71,24.26Z"/><path class="cls-1" d="M84,16.1a15.42,15.42,0,0,0-2.5.94l-.79-2.15a17.08,17.08,0,0,1,3-1.07,13.21,13.21,0,0,1,3.44-.4,7.94,7.94,0,0,1,5.56,1.79,6.88,6.88,0,0,1,1.94,5.3V31.28H92.07V28.62a8.72,8.72,0,0,1-2.48,2.12,7.55,7.55,0,0,1-3.9.92,8.81,8.81,0,0,1-2.4-.34,6.71,6.71,0,0,1-2.11-1,5.26,5.26,0,0,1-1.5-1.72,4.92,4.92,0,0,1-.57-2.42,5.38,5.38,0,0,1,.55-2.47,4.77,4.77,0,0,1,1.55-1.79,7.4,7.4,0,0,1,2.39-1.09,11.57,11.57,0,0,1,3.05-.38,19.59,19.59,0,0,1,3,.2,22,22,0,0,1,2.46.55v-.61A4.54,4.54,0,0,0,90.69,17a5.68,5.68,0,0,0-3.87-1.21A10.48,10.48,0,0,0,84,16.1Zm-.84,7.24A3.19,3.19,0,0,0,81.81,26a3.13,3.13,0,0,0,.35,1.5,3.54,3.54,0,0,0,1,1.11,4.43,4.43,0,0,0,1.41.7,5.78,5.78,0,0,0,1.68.24,7.2,7.2,0,0,0,2.3-.36,6.12,6.12,0,0,0,1.86-1,4.52,4.52,0,0,0,1.26-1.5,4,4,0,0,0,.46-1.92V23.1c-.66-.18-1.41-.35-2.26-.51a15.8,15.8,0,0,0-2.9-.24A6.27,6.27,0,0,0,83.13,23.34Z"/><path class="cls-1" d="M113.47,31.28V27.74a15.57,15.57,0,0,1-1.21,1.5,9,9,0,0,1-1.48,1.26,7,7,0,0,1-1.83.85,7.75,7.75,0,0,1-2.23.31,8.25,8.25,0,0,1-5.79-2.41A8.63,8.63,0,0,1,99,26.37a9.87,9.87,0,0,1-.72-3.88A10,10,0,0,1,99,18.6a8.84,8.84,0,0,1,1.91-2.88,8.47,8.47,0,0,1,2.69-1.8,8.2,8.2,0,0,1,5.35-.33,7.61,7.61,0,0,1,3.32,2A10.48,10.48,0,0,1,113.47,17V6.4h2.62V31.28ZM113,19.67a6.49,6.49,0,0,0-1.43-2.13,6.69,6.69,0,0,0-2-1.38,6.1,6.1,0,0,0-2.37-.49,6.44,6.44,0,0,0-2.42.46,5.75,5.75,0,0,0-2,1.32,6.32,6.32,0,0,0-1.33,2.14,7.85,7.85,0,0,0-.5,2.87,7.6,7.6,0,0,0,.5,2.81,6.7,6.7,0,0,0,1.34,2.15,5.9,5.9,0,0,0,2,1.38,6.21,6.21,0,0,0,2.39.47,5.92,5.92,0,0,0,2.37-.49,6.84,6.84,0,0,0,2-1.37A6.42,6.42,0,0,0,113,25.25a7.61,7.61,0,0,0,0-5.58Z"/><path class="cls-1" d="M137.68,26A9.13,9.13,0,0,1,135.76,29a9,9,0,0,1-2.93,2,9.23,9.23,0,0,1-3.68.73A9,9,0,0,1,125.5,31a9.33,9.33,0,0,1-2.9-2,9,9,0,0,1-1.91-2.91,9.39,9.39,0,0,1-.68-3.55,9.51,9.51,0,0,1,.68-3.56A9.32,9.32,0,0,1,132.88,14a9.26,9.26,0,0,1,2.91,2,8.81,8.81,0,0,1,1.91,2.91,9.5,9.5,0,0,1,0,7.11Zm-2.48-6.2a6.63,6.63,0,0,0-3.46-3.67,6.23,6.23,0,0,0-2.59-.55,6.47,6.47,0,0,0-2.63.53,6,6,0,0,0-2,1.46,7.24,7.24,0,0,0-1.31,2.18,7.35,7.35,0,0,0-.47,2.67,7.21,7.21,0,0,0,.49,2.68,6.47,6.47,0,0,0,3.42,3.64,6.23,6.23,0,0,0,2.59.55,6.47,6.47,0,0,0,2.63-.53,6,6,0,0,0,2-1.45,6.59,6.59,0,0,0,1.33-2.16,7.62,7.62,0,0,0,0-5.35Z"/><path class="cls-1" d="M153.87,28.57a5.11,5.11,0,0,1-1.33,1.66,5.88,5.88,0,0,1-2,1,8.52,8.52,0,0,1-2.47.35,11.26,11.26,0,0,1-3.86-.7A11.81,11.81,0,0,1,140.8,29l1.33-1.87a11.81,11.81,0,0,0,3,1.67,9.05,9.05,0,0,0,3.12.58,4.33,4.33,0,0,0,2.63-.75,2.4,2.4,0,0,0,1-2.05v-.07a1.81,1.81,0,0,0-.36-1.12,3.22,3.22,0,0,0-1-.84,9.3,9.3,0,0,0-1.41-.63c-.54-.18-1.09-.35-1.66-.51s-1.37-.42-2.06-.66a8.53,8.53,0,0,1-1.87-.9,4.59,4.59,0,0,1-1.37-1.37,3.68,3.68,0,0,1-.53-2V18.4a4.68,4.68,0,0,1,.45-2.06,4.52,4.52,0,0,1,1.24-1.6,5.66,5.66,0,0,1,1.91-1,7.74,7.74,0,0,1,2.4-.36,11,11,0,0,1,3.31.53,12.78,12.78,0,0,1,3,1.42l-1.19,2A12.4,12.4,0,0,0,150.23,16a8.08,8.08,0,0,0-2.65-.46,3.85,3.85,0,0,0-2.48.73,2.24,2.24,0,0,0-.92,1.83v.06a1.67,1.67,0,0,0,.37,1.08,3.31,3.31,0,0,0,1,.8,8.55,8.55,0,0,0,1.45.61c.54.18,1.11.37,1.7.55s1.36.43,2,.68a8,8,0,0,1,1.82.95,4.71,4.71,0,0,1,1.31,1.4,3.84,3.84,0,0,1,.5,2v.07A4.85,4.85,0,0,1,153.87,28.57Z"/><rect class="cls-1" x="0.01" y="22.28" width="17.72" height="17.72"/><rect class="cls-1" x="22.78" width="17.72" height="17.72"/><path class="cls-1" d="M32.61,19.39H21.09V7.52c-.28,0-.54-.08-.82-.08A12.3,12.3,0,0,0,7.9,19.66c0,.32.07.63.1.95H19.39V31.79c.3,0,.58.08.88.08A12.29,12.29,0,0,0,32.64,19.66C32.64,19.57,32.61,19.48,32.61,19.39Z"/><path class="cls-1" d="M17.72,6V0H0V17.72H6.35A14,14,0,0,1,17.72,6Z"/></g></g></svg>